<svg width="51" height="48" viewBox="0 0 51 48" fill="none" xmlns="http://www.w3.org/2000/svg">
<path d="M1.44 37V4.744C1.44 4.296 1.52 3.976 1.68 3.784C1.84 3.592 2.288 3.48 3.024 3.448C3.792 3.416 5.056 3.4 6.816 3.4V31.96H13.584V36.04C13.584 36.424 13.488 36.68 13.296 36.808C13.136 36.936 12.912 37 12.624 37H1.44ZM15.7369 37V5.752C15.7369 4.952 15.8169 4.392 15.9769 4.072C16.1369 3.752 16.6009 3.56 17.3689 3.496C18.1369 3.432 19.4169 3.4 21.2089 3.4V36.04C21.2089 36.36 21.1289 36.584 20.9689 36.712C20.8089 36.84 20.3449 36.92 19.5769 36.952C18.8409 36.984 17.5609 37 15.7369 37ZM36.7046 37L31.6166 24.136C31.3286 23.368 31.0246 22.488 30.7046 21.496C30.4166 20.504 30.1286 19.464 29.8406 18.376C29.5846 17.288 29.3446 16.232 29.1206 15.208C28.8966 14.184 28.6886 13.256 28.4966 12.424C28.3366 11.592 28.2086 10.936 28.1126 10.456C28.0166 9.944 27.9686 9.688 27.9686 9.688L24.8006 6.52L25.0406 3.4H29.3126L34.3046 16.024C34.6246 16.856 34.9446 17.8 35.2646 18.856C35.5846 19.88 35.8726 20.936 36.1286 22.024C36.4166 23.08 36.6726 24.104 36.8966 25.096C37.1206 26.088 37.3126 26.984 37.4726 27.784C37.6326 28.584 37.7606 29.224 37.8566 29.704C37.9526 30.152 38.0006 30.376 38.0006 30.376L41.2646 33.88L40.8806 37H36.7046ZM24.0806 37V4.36C24.0806 3.72 24.4006 3.4 25.0406 3.4L29.4566 4.36L28.6406 12.472C28.7366 13.144 28.8166 13.832 28.8806 14.536C28.9446 15.24 29.0086 15.96 29.0726 16.696C29.1366 17.4 29.1846 18.104 29.2166 18.808C29.2806 19.48 29.3286 20.152 29.3606 20.824C29.3926 21.496 29.4086 22.152 29.4086 22.792C29.4406 23.4 29.4566 23.976 29.4566 24.52V36.04C29.4566 36.36 29.3766 36.584 29.2166 36.712C29.0566 36.84 28.6086 36.92 27.8726 36.952C27.1366 36.984 25.8726 37 24.0806 37ZM40.8806 37L36.4646 36.04L37.1846 26.824C37.0886 26.088 37.0086 25.384 36.9446 24.712C36.8806 24.008 36.8166 23.336 36.7526 22.696C36.7206 22.056 36.6726 21.432 36.6086 20.824C36.5766 20.216 36.5446 19.624 36.5126 19.048C36.5126 18.44 36.4966 17.848 36.4646 17.272C36.4646 16.696 36.4646 16.12 36.4646 15.544V4.36C36.4646 4.04 36.5446 3.816 36.7046 3.688C36.8646 3.56 37.3126 3.48 38.0486 3.448C38.8166 3.416 40.0806 3.4 41.8406 3.4V36.04C41.8406 36.68 41.5206 37 40.8806 37Z" fill="#0116CE"/>
<circle cx="47.5" cy="33.5" r="3.5" fill="#0116CE"/>
</svg>
